<svg xmlns="http://www.w3.org/2000/svg" width="258" height="139.82" viewBox="0 0 258 139.82">
  <g id="Logo" transform="translate(2068.322 -249.125)">
    <path id="Trazado_84" data-name="Trazado 84" d="M-1383.388,311.892h30.067a1.372,1.372,0,0,0,1.37-1.371v-6.327l7.285,7.283a1.364,1.364,0,0,0,.981.415h20.349a1.372,1.372,0,0,0,1.37-1.371V280.505a1.372,1.372,0,0,0-1.37-1.371h-28.615v-28.64a1.372,1.372,0,0,0-1.371-1.37h-30.066a1.372,1.372,0,0,0-1.37,1.37v20.3a1.354,1.354,0,0,0,.407.973l8.741,8.738-8.727,8.724a1.364,1.364,0,0,0-.421.987v20.3A1.372,1.372,0,0,0-1383.388,311.892Zm1.371-41.662V251.865h27.325v27.27h-18.415Zm27.325,31.033v7.888h-27.325V290.786l8.91-8.9h18.336v18.925A1.362,1.362,0,0,0-1354.692,301.262Zm2.74-.944V281.876h27.245V309.15h-18.412Z" transform="translate(-586.658)" fill="#fff"/>
    <path id="Trazado_85" data-name="Trazado 85" d="M-1509.98,918.923h-13.208V896.946h-2.9v24.877h16.11Z" transform="translate(-465.362 -555.982)" fill="#fff"/>
    <path id="Trazado_86" data-name="Trazado 86" d="M-1390.04,914.381h10.221l2.977,7.443h3.132l-9.821-24.877h-2.361l-7.088,17.446h2.931Zm9.084-2.9h-7.692l3.911-9.751Z" transform="translate(-579.601 -555.982)" fill="#fff"/>
    <path id="Trazado_87" data-name="Trazado 87" d="M-2068.322,899.848h8.139v21.975h2.9V899.848h.021v-2.9h-11.062Z" transform="translate(0 -555.982)" fill="#fff"/>
    <path id="Trazado_88" data-name="Trazado 88" d="M-1913.725,907.454h-13.567V896.938h-2.9v24.878h2.9V910.354h13.567v11.463h2.9V896.938h-2.9Z" transform="translate(-118.545 -555.976)" fill="#fff"/>
    <path id="Trazado_89" data-name="Trazado 89" d="M-1751.246,910.342h13.527v-2.9h-13.527v-7.612h14.378v-2.905h-17.275V921.8h17.407v-2.9h-14.51Z" transform="translate(-269.639 -555.962)" fill="#fff"/>
    <path id="Trazado_90" data-name="Trazado 90" d="M-701.652,896.946l-7.081,17.424h11.979v.01h1.179l2.972,7.443h3.139l-9.828-24.877Zm4.933,14.532H-704.4l3.91-9.752Z" transform="translate(-1166.846 -555.982)" fill="#fff"/>
    <path id="Trazado_91" data-name="Trazado 91" d="M-391.375,907.807l12.331-10.86h-4.384l-14.116,12.373V896.946h-2.892v17.006h2.892v-.762l3.969-3.5,10.56,11.876.233.262h3.9Z" transform="translate(-1431.437 -555.982)" fill="#fff"/>
    <path id="Trazado_92" data-name="Trazado 92" d="M-541.948,916.02c0-2.916-.451-5.16-2.462-6.419a6.442,6.442,0,0,0,2.835-5.767c-.109-4.581-2.813-6.9-8.035-6.9h-10.382V921.81h2.9V911.2h7.386c3.639,0,4.85.683,4.85,4.724a18.75,18.75,0,0,0,.553,5.168l.284.717h3.552l-1.122-1.738A16.789,16.789,0,0,1-541.948,916.02Zm-2.524-12.214a4.1,4.1,0,0,1-1.113,3.043,5.818,5.818,0,0,1-4.181,1.449h-7.322v-8.464h7.635C-546.037,899.835-544.5,901.06-544.472,903.806Z" transform="translate(-1294.501 -555.969)" fill="#fff"/>
    <path id="Trazado_93" data-name="Trazado 93" d="M-1241.507,896.946h-2.666v24.877h2.9V902.339l13.8,19.484h2.669V896.946h-2.9V916.43Z" transform="translate(-707.313 -555.982)" fill="#fff"/>
    <path id="Trazado_94" data-name="Trazado 94" d="M-1056.629,909.378c0-4.819-1.405-8.32-4.176-10.405a10.951,10.951,0,0,0-6.589-2.035h-9.055v24.878h8.07a11.737,11.737,0,0,0,8.119-2.911C-1057.851,916.69-1056.629,913.485-1056.629,909.378Zm-11.588,9.539h-5.331V899.841h5.992c2.988,0,5.169,1.028,6.481,3.056a11.874,11.874,0,0,1,1.544,6.481,10.163,10.163,0,0,1-2.338,7.011A8.324,8.324,0,0,1-1068.218,918.916Z" transform="translate(-851.258 -555.975)" fill="#fff"/>
    <path id="Trazado_95" data-name="Trazado 95" d="M-896.912,917.121l-8.859-20.175h-2.921v24.877h2.9v-17.71l7.789,17.71h2.179l7.78-17.7v17.7h2.9V896.946h-2.921Z" transform="translate(-995.235 -555.982)" fill="#fff"/>
    <path id="Trazado_96" data-name="Trazado 96" d="M-1502.625,1181.4h2.894a3.563,3.563,0,0,1-.211.761,2.419,2.419,0,0,1-.571.856,2.4,2.4,0,0,1-.85.529,3.329,3.329,0,0,1-1.154.188,3.466,3.466,0,0,1-1.354-.247,2.76,2.76,0,0,1-.956-.665,2.721,2.721,0,0,1-.579-.965,3.635,3.635,0,0,1-.2-1.205,3.221,3.221,0,0,1,.218-1.182,2.9,2.9,0,0,1,.624-.979,2.877,2.877,0,0,1,.965-.665,3.16,3.16,0,0,1,1.282-.246,3.81,3.81,0,0,1,.939.111,2.9,2.9,0,0,1,.8.333,2.2,2.2,0,0,1,.582.529,2.287,2.287,0,0,1,.359.754l.085.313h1.132l-.139-.533a3.348,3.348,0,0,0-.509-1.1,3.165,3.165,0,0,0-.84-.817,3.838,3.838,0,0,0-1.109-.487,5.055,5.055,0,0,0-1.3-.164,4.349,4.349,0,0,0-1.874.377,4.061,4.061,0,0,0-1.318.975,3.865,3.865,0,0,0-.764,1.338,4.445,4.445,0,0,0-.251,1.443,4.547,4.547,0,0,0,.317,1.738,3.723,3.723,0,0,0,.894,1.311,3.878,3.878,0,0,0,1.347.82,4.9,4.9,0,0,0,1.649.275,4.585,4.585,0,0,0,1.106-.135,3.962,3.962,0,0,0,.983-.414,3.582,3.582,0,0,0,.8-.668v1.051h1.058v-4.292h-4.053Z" transform="translate(-481.983 -795.919)" fill="#fff"/>
    <path id="Trazado_97" data-name="Trazado 97" d="M-1427.717,1182.093a3.023,3.023,0,0,1-.132.94,1.457,1.457,0,0,1-.364.6,1.883,1.883,0,0,1-.7.392,4.094,4.094,0,0,1-1.187.149,4.1,4.1,0,0,1-1.178-.146,1.817,1.817,0,0,1-.7-.393,1.37,1.37,0,0,1-.367-.6,3.045,3.045,0,0,1-.13-.941v-4.975h-1.265v5a3.1,3.1,0,0,0,.944,2.436,3.926,3.926,0,0,0,2.7.827,3.97,3.97,0,0,0,2.7-.827,3.124,3.124,0,0,0,.935-2.436v-5h-1.257Z" transform="translate(-544.618 -796.435)" fill="#fff"/>
    <path id="Trazado_98" data-name="Trazado 98" d="M-1057.38,1182.659a1.668,1.668,0,0,1-.348,1.158,1.472,1.472,0,0,1-1.117.359,1.839,1.839,0,0,1-.855-.16,1.146,1.146,0,0,1-.424-.362,1.153,1.153,0,0,1-.186-.463,3.986,3.986,0,0,1-.05-.533v-.563h-1.263v.563a3.112,3.112,0,0,0,.234,1.273,2.22,2.22,0,0,0,.654.877,2.348,2.348,0,0,0,.91.446,3.921,3.921,0,0,0,.979.125,2.79,2.79,0,0,0,1.955-.669l.018-.017a2.72,2.72,0,0,0,.75-2.07v-5.505h-1.257Z" transform="translate(-863.983 -796.435)" fill="#fff"/>
    <path id="Trazado_99" data-name="Trazado 99" d="M-1010.177,1177.118l-3.729,8.1h1.406l1.074-2.358h3.523l1.078,2.358h1.4l-3.717-8.1Zm1.733,4.55h-2.438l1.219-2.677Z" transform="translate(-904.936 -796.435)" fill="#fff"/>
    <path id="Trazado_100" data-name="Trazado 100" d="M-938.2,1184.021c-.02-.246-.033-.613-.044-1.227a1.9,1.9,0,0,0-.459-1.263,1.623,1.623,0,0,0-.324-.294,2.029,2.029,0,0,0,.44-.43,2.063,2.063,0,0,0,.367-.674,2.364,2.364,0,0,0,.1-.686,2.5,2.5,0,0,0-.229-1.121,1.909,1.909,0,0,0-.655-.744,2.553,2.553,0,0,0-.938-.367,5.48,5.48,0,0,0-1.052-.1h-4.145v8.1h1.257v-3.325H-941a4.175,4.175,0,0,1,.834.073.887.887,0,0,1,.387.168.7.7,0,0,1,.184.3,2.844,2.844,0,0,1,.089.707l.011.358c0,.12.008.23.013.343.005.065.01.126.014.186.008.113.015.213.025.295a2.533,2.533,0,0,0,.067.4l.179.5h1.324l-.24-.665A2.549,2.549,0,0,1-938.2,1184.021Zm-1.177-4.6a1.4,1.4,0,0,1-.091.555.993.993,0,0,1-.208.326,1.15,1.15,0,0,1-.3.208,2.569,2.569,0,0,1-.415.129,2.657,2.657,0,0,1-.381.049c-.128.008-.227.008-.3.008h-2.809v-2.369h2.928a3.721,3.721,0,0,1,.669.059,1.474,1.474,0,0,1,.5.182.856.856,0,0,1,.3.309A1.145,1.145,0,0,1-939.378,1179.417Z" transform="translate(-963.957 -796.435)" fill="#fff"/>
    <path id="Trazado_101" data-name="Trazado 101" d="M-1124.075,1177.118l-3.72,8.1h1.4l1.076-2.358h3.523l1.071,2.358h1.4l-3.715-8.1Zm1.732,4.55h-2.431l1.215-2.674Z" transform="translate(-807.192 -796.435)" fill="#fff"/>
    <path id="Trazado_102" data-name="Trazado 102" d="M-1298.745,1177.991a2.973,2.973,0,0,0-1.219-.689,5.06,5.06,0,0,0-1.348-.184h-3.818v8.1h3.737a4.213,4.213,0,0,0,1.642-.294,3.145,3.145,0,0,0,1.2-.864,3.44,3.44,0,0,0,.7-1.3,5.357,5.357,0,0,0,.222-1.587,5.36,5.36,0,0,0-.294-1.892A3.23,3.23,0,0,0-1298.745,1177.991Zm-2.554,6.024h-2.57v-5.694h2.458a3.2,3.2,0,0,1,1.066.166,1.829,1.829,0,0,1,.765.472,2.153,2.153,0,0,1,.5.849,4.179,4.179,0,0,1,.193,1.356,4.114,4.114,0,0,1-.191,1.335,2.272,2.272,0,0,1-.494.86,1.909,1.909,0,0,1-.729.487A2.867,2.867,0,0,1-1301.3,1184.016Z" transform="translate(-654.997 -796.435)" fill="#fff"/>
    <path id="Trazado_103" data-name="Trazado 103" d="M-1370.135,1177.118l-3.724,8.1h1.4l1.076-2.358h3.523l1.073,2.358h1.4l-3.716-8.1Zm1.733,4.55h-2.44l1.219-2.677Z" transform="translate(-596.011 -796.435)" fill="#fff"/>
    <path id="Trazado_104" data-name="Trazado 104" d="M-1240.625,1177.118l-3.722,8.1h1.406l1.073-2.358h3.521l1.071,2.358h1.4l-3.722-8.1Zm1.734,4.55h-2.438l1.221-2.677Z" transform="translate(-707.164 -796.435)" fill="#fff"/>
    <path id="Trazado_105" data-name="Trazado 105" d="M-1174.35,1177.118h-1.26v8.1h6.1v-1.2h-4.845Z" transform="translate(-766.156 -796.436)" fill="#fff"/>
    <path id="Trazado_106" data-name="Trazado 106" d="M-883.794,1177.618l-3.659,7.955h1.243l1.078-2.358h3.615l1.072,2.358h1.248l-3.653-7.955Zm1.8,4.549h-2.656l1.329-2.918Z" transform="translate(-1013.462 -796.865)" fill="#fff"/>
  </g>
</svg>
