<svg width="61" height="73" viewBox="0 0 61 73" fill="none" xmlns="http://www.w3.org/2000/svg">
<path d="M44.1667 1.16667L14.8333 0L0 15.6667V50L17.5 72.5H41.1667L56.5 57.3333L60.5 25.8333L44.1667 1.16667Z" fill="black"/>
<path d="M54.6667 23.8333L41.3334 5.33333L18.6667 4L5.00002 21.8333L2.66669 48.8333L15 64.3333L39 69.1667L54.6667 51.1667V23.8333Z" fill="#FFF212"/>
<path d="M40.5 14L35.1667 2.66663L4 16.5L18.1667 68.1666L56 50.5L48 31.5L28.3333 43.6666L27.3333 37.1666L38.3333 33L35.1667 20L24.8333 24L22.8333 19L40.5 14Z" fill="black" stroke="#151414"/>
</svg>
