<svg width="24" height="21" viewBox="0 0 24 21" fill="none" xmlns="http://www.w3.org/2000/svg">
<path d="M5 0L5 18" stroke="black"/>
<path d="M1.00001 2.99994L23.0837 6.80195" stroke="black"/>
<line x1="22.5" y1="7" x2="22.5" y2="18" stroke="black"/>
<path d="M8.25284 10.0909H9.01136L9.8125 12.0455H9.84659L10.6477 10.0909H11.4062V13H10.8097V11.1065H10.7855L10.0327 12.9858H9.62642L8.87358 11.0994H8.84943V13H8.25284V10.0909ZM12.4144 13H11.7553L12.7596 10.0909H13.5522L14.555 13H13.896L13.1673 10.7557H13.1445L12.4144 13ZM12.3732 11.8565H13.93V12.3366H12.3732V11.8565ZM14.9052 13V10.0909H15.5202V12.4929H16.7674V13H14.9052ZM17.1747 13V10.0909H17.7898V12.4929H19.0369V13H17.1747Z" fill="black"/>
<line x1="1.5" y1="3" x2="1.5" y2="17" stroke="black"/>
<path d="M13.2178 5.00002L21.2178 2.00014" stroke="black"/>
<path d="M21.5 1.5V7" stroke="black"/>
<path d="M19.7822 2.47392L4.50001 0.500014" stroke="black"/>
<rect x="0.5" y="17.5" width="23" height="3" fill="#E7FE55" stroke="black"/>
</svg>
