<svg width="200" height="303" viewBox="0 0 200 303" fill="none" xmlns="http://www.w3.org/2000/svg">
<path d="M97.1256 26.6351L73.8772 301L167.24 242.455C176.589 182.755 199.852 55.388 198.976 48.806C197.915 40.8383 198.976 39.1062 192.703 34.2564C173.267 23.1709 131.15 1 118.16 1C105.17 1 98.7247 18.0901 97.1256 26.6351Z" stroke="black" stroke-width="2"/>
<path d="M123.146 84.8337L125.361 102.155L131.265 86.2194M130.527 102.848L132.233 98.3441M139.383 103.887L138.584 99.3834M138.584 99.3834L136.431 87.2587L132.233 98.3441M138.584 99.3834L132.233 98.3441" stroke="black" stroke-width="2"/>
<path d="M144.55 88.9907L142.705 103.54H148.24" stroke="black" stroke-width="2"/>
<path d="M156.728 104.58H150.823L152.115 97.6513M152.115 97.6513L153.406 90.7229H158.573M152.115 97.6513H156.728" stroke="black" stroke-width="2"/>
<path d="M160.418 91.7622L163.37 92.2818M166.322 92.8015L163.37 92.2818M163.37 92.2818L161.156 106.312" stroke="black" stroke-width="2"/>
<path d="M107.279 129.522L108.201 121.554M108.201 121.554L109.124 113.587C110.046 113.587 116.873 113.587 116.504 118.783C116.209 122.94 110.846 122.363 108.201 121.554Z" stroke="black" stroke-width="2"/>
<path d="M116.504 129.522L118.401 125.018M125.73 129.522L124.837 125.018M124.837 125.018L122.778 114.626L118.401 125.018M124.837 125.018H118.401" stroke="black" stroke-width="2"/>
<path d="M129.051 129.522L131.265 114.972C133.602 114.741 138.055 115.18 137.169 118.783C136.284 122.386 132.864 122.825 131.265 122.594M134.586 122.594L136.062 129.522" stroke="black" stroke-width="2"/>
<path d="M141.598 115.665L140.49 122.94M139.752 129.522L140.49 122.94M140.49 122.94L143.812 120.169M147.502 115.665L143.812 120.169M143.812 120.169L146.026 129.522" stroke="black" stroke-width="2"/>
<path d="M151.192 115.665L149.347 129.522M152.668 129.522L154.513 115.665L157.835 128.829L160.049 116.704M168.536 119.476C168.167 118.09 167.06 115.596 165.584 116.704C163.739 118.09 163.079 119.874 162.632 121.554C161.894 124.326 161.746 127.028 162.632 128.136C163.739 129.522 166.196 130.838 167.429 128.136C168.536 125.711 168.167 124.441 167.429 123.633H165.584" stroke="black" stroke-width="2"/>
<path d="M117.946 15.8961L182.156 40.4919C184.493 41.4157 189.167 46.104 189.167 57.4665C189.167 68.8291 169.732 181.831 160.014 236.912M117.946 15.8961C112.041 18.9446 109.089 26.2887 107.613 32.8707L85.4718 280.561M117.946 15.8961C119.053 14.8568 122.226 12.9862 126.064 13.8176C129.902 14.649 169.732 31.2541 189.167 39.4527C192.488 40.8537 195.588 43.0555 196.179 53.3095C196.769 63.5636 176.005 182.062 165.55 240.03M160.014 236.912L85.4718 280.561M160.014 236.912L165.55 240.03M85.4718 280.561L83.6267 289.568L165.55 240.03M115.363 2.03931L61.1163 10.6998C55.2119 13.3557 43.7722 21.231 45.2483 31.485C46.7244 41.7391 45.1253 71.3234 44.1412 84.8338M44.1412 84.8338L23.4759 80.6767C18.0636 82.0624 7.09133 86.358 6.5009 92.455M44.1412 84.8338V103.887L6.5009 92.455M6.5009 92.455C5.91046 98.552 0.762544 189.337 1.00856 236.912L75.8772 301" stroke="black" stroke-width="2"/>
</svg>
