<svg width="20" height="22" viewBox="0 0 20 22" fill="none" xmlns="http://www.w3.org/2000/svg">
<mask id="path-1-inside-1_189_2" fill="white">
<path fill-rule="evenodd" clip-rule="evenodd" d="M5.00024 7.87392C4.68055 7.95622 4.34539 8 4 8C1.79086 8 0 6.20914 0 4C0 1.79086 1.79086 0 4 0C5.19478 0 6.26722 0.523834 7.00016 1.35436C7.73311 0.523834 8.80555 0 10.0003 0C11.195 0 12.2673 0.523718 13.0003 1.35409C13.7332 0.523718 14.8055 0 16.0002 0C18.2093 0 20.0002 1.79086 20.0002 4C20.0002 6.20914 18.2093 8 16.0002 8C15.6549 8 15.3198 7.95625 15.0002 7.874V19H5.00024V7.87392ZM4.00024 21C4.00024 20.7239 4.2241 20.5 4.50024 20.5H15.5002C15.7764 20.5 16.0002 20.7239 16.0002 21C16.0002 21.2761 15.7764 21.5 15.5002 21.5H4.50024C4.2241 21.5 4.00024 21.2761 4.00024 21Z"/>
</mask>
<path fill-rule="evenodd" clip-rule="evenodd" d="M5.00024 7.87392C4.68055 7.95622 4.34539 8 4 8C1.79086 8 0 6.20914 0 4C0 1.79086 1.79086 0 4 0C5.19478 0 6.26722 0.523834 7.00016 1.35436C7.73311 0.523834 8.80555 0 10.0003 0C11.195 0 12.2673 0.523718 13.0003 1.35409C13.7332 0.523718 14.8055 0 16.0002 0C18.2093 0 20.0002 1.79086 20.0002 4C20.0002 6.20914 18.2093 8 16.0002 8C15.6549 8 15.3198 7.95625 15.0002 7.874V19H5.00024V7.87392ZM4.00024 21C4.00024 20.7239 4.2241 20.5 4.50024 20.5H15.5002C15.7764 20.5 16.0002 20.7239 16.0002 21C16.0002 21.2761 15.7764 21.5 15.5002 21.5H4.50024C4.2241 21.5 4.00024 21.2761 4.00024 21Z" fill="#E7FE55"/>
<path d="M5.00024 7.87392H6.00024V6.58386L4.75092 6.9055L5.00024 7.87392ZM7.00016 1.35436L6.25038 2.01605L7.00016 2.86565L7.74995 2.01605L7.00016 1.35436ZM13.0003 1.35409L12.2505 2.01584L13.0003 2.86522L13.75 2.01584L13.0003 1.35409ZM15.0002 7.874L15.2495 6.90556L14.0002 6.58405V7.874H15.0002ZM15.0002 19V20H16.0002V19H15.0002ZM5.00024 19H4.00024V20H5.00024V19ZM4 9C4.4302 9 4.84911 8.94544 5.24956 8.84234L4.75092 6.9055C4.51199 6.96701 4.26058 7 4 7V9ZM-1 4C-1 6.76142 1.23858 9 4 9V7C2.34315 7 1 5.65685 1 4H-1ZM4 -1C1.23858 -1 -1 1.23858 -1 4H1C1 2.34315 2.34315 1 4 1V-1ZM7.74995 0.692676C6.83522 -0.343827 5.49362 -1 4 -1V1C4.89595 1 5.69921 1.39149 6.25038 2.01605L7.74995 0.692676ZM10.0003 -1C8.50671 -1 7.16511 -0.343827 6.25038 0.692676L7.74995 2.01605C8.30112 1.39149 9.10438 1 10.0003 1V-1ZM13.75 0.692333C12.8353 -0.343972 11.4938 -1 10.0003 -1V1C10.8962 1 11.6994 1.39141 12.2505 2.01584L13.75 0.692333ZM16.0002 -1C14.5067 -1 13.1652 -0.343971 12.2505 0.692333L13.75 2.01584C14.3011 1.39141 15.1043 1 16.0002 1V-1ZM21.0002 4C21.0002 1.23858 18.7616 -1 16.0002 -1V1C17.657 1 19.0002 2.34315 19.0002 4H21.0002ZM16.0002 9C18.7616 9 21.0002 6.76142 21.0002 4H19.0002C19.0002 5.65685 17.657 7 16.0002 7V9ZM14.751 8.84244C15.1513 8.94547 15.5701 9 16.0002 9V7C15.7397 7 15.4883 6.96703 15.2495 6.90556L14.751 8.84244ZM14.0002 7.874V19H16.0002V7.874H14.0002ZM15.0002 18H5.00024V20H15.0002V18ZM6.00024 19V7.87392H4.00024V19H6.00024ZM4.50024 19.5C3.67182 19.5 3.00024 20.1716 3.00024 21H5.00024C5.00024 21.2761 4.77639 21.5 4.50024 21.5V19.5ZM15.5002 19.5H4.50024V21.5H15.5002V19.5ZM17.0002 21C17.0002 20.1716 16.3287 19.5 15.5002 19.5V21.5C15.2241 21.5 15.0002 21.2761 15.0002 21H17.0002ZM15.5002 22.5C16.3287 22.5 17.0002 21.8284 17.0002 21H15.0002C15.0002 20.7239 15.2241 20.5 15.5002 20.5V22.5ZM4.50024 22.5H15.5002V20.5H4.50024V22.5ZM3.00024 21C3.00024 21.8284 3.67182 22.5 4.50024 22.5V20.5C4.77639 20.5 5.00024 20.7239 5.00024 21H3.00024Z" fill="black" mask="url(#path-1-inside-1_189_2)"/>
</svg>
